<svg id="Capa_1" enable-background="new 0 0 512 512" height="512" viewBox="0 0 512 512" width="512" xmlns="http://www.w3.org/2000/svg"><g><g><g><path d="m499.933 198.268v266.348c0 22.03-17.85 39.88-39.87 39.88h-327.596c-18.82 0-34.59-13.04-38.78-30.58l-.16-22.8-.93-135.779v-267.957c0-22.03 17.85-39.88 39.87-39.88h176.698c15.88 0 67.309 43.85 112.769 90.029 41.48 42.15 77.999 86.239 77.999 100.739z" fill="#ddeafb"/><path d="m499.933 198.268v97.569c0-.11-.01-.22-.01-.34-3-119.719-100.519-125.259-132.409-157.149l54.419-40.82c41.481 42.151 78 86.24 78 100.74z" fill="#cbe2ff"/><path d="m309.16 7.5h-97.569c.11 0 .22.01.34.01 119.719 3 125.259 100.519 157.149 132.409l40.82-54.419c-42.151-41.481-86.24-78-100.74-78z" fill="#cbe2ff"/><path d="m499.933 198.274v16.868c0-35.513-28.798-64.311-64.311-64.311h-39.142c-22.019 0-39.877-17.858-39.877-39.877v-39.143c0-35.513-28.798-64.311-64.311-64.311h16.868c30.373 0 59.512 12.068 80.988 33.544l76.241 76.241c21.475 21.477 33.544 50.616 33.544 80.989z" fill="#bed8fb"/></g><g><path d="m266.579 302.553c-2.693-4.664-5.652-9.078-8.845-13.237-3.589-4.675-4.312-10.943-1.914-16.326l4.454-9.995c3.357-7.534.482-16.387-6.661-20.511l-33.013-19.06c-7.143-4.124-16.248-2.188-21.094 4.487l-6.435 8.862c-3.466 4.774-9.266 7.283-15.114 6.504-10.471-1.396-21.157-1.425-31.778-.015-5.835.774-11.619-1.746-15.077-6.509l-6.42-8.841c-4.846-6.675-13.951-8.611-21.094-4.487l-33.013 19.06c-7.143 4.124-10.018 12.977-6.661 20.511l4.447 9.98c2.396 5.376 1.687 11.646-1.901 16.312-6.532 8.493-11.849 17.763-15.876 27.529-2.249 5.454-7.322 9.222-13.189 9.837l-10.892 1.142c-8.203.86-14.433 7.776-14.433 16.025v38.12c0 8.248 6.229 15.165 14.433 16.025l10.883 1.141c5.861.614 10.929 4.375 13.182 9.82 2.005 4.845 4.348 9.615 7.041 14.279s5.652 9.079 8.845 13.238c3.589 4.675 4.312 10.943 1.914 16.326l-4.454 9.995c-3.357 7.534-.482 16.387 6.661 20.511l33.013 19.06c7.143 4.124 16.248 2.188 21.094-4.487l6.435-8.862c3.466-4.774 9.266-7.283 15.114-6.504 10.471 1.396 21.157 1.425 31.778.015 5.835-.774 11.619 1.746 15.077 6.509l6.42 8.841c4.846 6.674 13.951 8.611 21.094 4.487l33.013-19.06c7.143-4.124 10.018-12.977 6.661-20.511l-4.447-9.98c-2.396-5.376-1.687-11.646 1.901-16.312 6.532-8.493 11.849-17.763 15.876-27.529 2.249-5.454 7.322-9.222 13.189-9.837l10.892-1.142c8.203-.86 14.433-7.776 14.433-16.025v-38.12c0-8.248-6.229-15.165-14.433-16.025l-10.883-1.141c-5.861-.614-10.929-4.375-13.182-9.82-2.005-4.846-4.348-9.616-7.041-14.28z" fill="#617881"/><path d="m220.691 502.282-.092.051c-7.148 4.125-16.246 2.185-21.096-4.493l-6.423-8.843c-1.909-2.645-4.544-4.595-7.515-5.677 2.91-.163 5.831-.439 8.741-.827 5.841-.776 11.62 1.746 15.082 6.504l6.413 8.843c1.346 1.859 3.021 3.35 4.89 4.442z" fill="#617881"/><circle cx="162.094" cy="362.878" fill="#475959" r="78.498"/><circle cx="162.094" cy="362.878" fill="#ddeafb" r="31.33"/></g></g><g><path d="m507.427 198.265c-.003-32.608-12.694-63.249-35.735-86.279l-76.241-76.251c-23.056-23.044-53.701-35.735-86.291-35.735h-176.699c-26.12 0-47.37 21.254-47.37 47.379v178.058l-18.274 10.548c-10.495 6.07-14.689 18.995-9.755 30.066l4.447 9.975c1.286 2.89.905 6.219-.992 8.688-6.877 8.94-12.552 18.778-16.868 29.24-1.197 2.901-3.892 4.906-7.044 5.233l-10.886 1.149c-12.057 1.265-21.147 11.358-21.147 23.479v38.12c0 12.126 9.091 22.224 21.148 23.489l10.884 1.14c3.14.327 5.837 2.332 7.035 5.222 2.022 4.903 4.386 9.74 7.022 14.376 2.048 3.602 6.626 4.859 10.227 2.812 3.601-2.048 4.859-6.626 2.811-10.227-2.327-4.092-4.412-8.359-6.201-12.695-3.312-7.989-10.724-13.51-19.337-14.407l-10.879-1.14c-4.396-.461-7.712-4.146-7.712-8.571v-38.12c0-4.419 3.315-8.1 7.717-8.561l10.879-1.148c8.63-.897 16.043-6.425 19.347-14.43 3.811-9.24 8.821-17.926 14.892-25.819 5.257-6.838 6.332-16.007 2.804-23.935l-4.449-9.979c-1.801-4.04-.269-8.758 3.559-10.971l33.018-19.059c3.827-2.207 8.675-1.174 11.273 2.402l6.418 8.836c5.099 7.028 13.578 10.685 22.137 9.54 9.875-1.31 19.901-1.305 29.8.02 8.57 1.145 17.07-2.509 22.17-9.534l6.443-8.864c2.597-3.578 7.441-4.609 11.27-2.4l33.008 19.059c3.831 2.213 5.361 6.931 3.561 10.974l-4.451 9.991c-3.524 7.915-2.448 17.09 2.816 23.952 3.033 3.945 5.824 8.121 8.3 12.418 2.505 4.338 4.727 8.841 6.602 13.382 3.298 7.986 10.701 13.514 19.332 14.427l10.889 1.139c4.396.461 7.712 4.142 7.712 8.561v38.12c0 4.425-3.315 8.11-7.71 8.571l-10.897 1.14c-8.629.898-16.041 6.427-19.347 14.435-3.797 9.226-8.803 17.91-14.881 25.813-5.264 6.848-6.338 16.024-2.807 23.939l4.443 9.987c1.801 4.035.27 8.747-3.561 10.959l-33.008 19.059c-1.431.825-3.002 1.198-4.545 1.156h-.028c-2.582-.078-5.08-1.32-6.701-3.557l-6.422-8.843c-5.096-7.011-13.57-10.668-22.134-9.535-9.872 1.311-19.896 1.305-29.813-.021-8.591-1.128-17.083 2.528-22.155 9.537l-6.443 8.863c-2.597 3.578-7.444 4.609-11.271 2.4l-33.013-19.056c-3.832-2.217-5.365-6.929-3.564-10.965l4.3-9.65c1.686-3.784-.015-8.218-3.798-9.903-3.784-1.686-8.217.014-9.903 3.798l-4.298 9.646c-4.938 11.064-.745 23.987 9.76 30.062l33.02 19.06c6.433 3.713 13.91 4.073 20.377 1.55 3.97 1.066 8.074 1.614 12.241 1.614h327.598c26.119 0 47.369-21.254 47.369-47.379v-266.337-.01c.001-.001.001-.002.001-.003zm-362.19 291.644c11.217 1.5 22.574 1.506 33.756.021 3.097-.411 6.172.927 8.029 3.481l2.602 3.583h-55.053l2.626-3.612c1.848-2.552 4.939-3.884 8.04-3.473zm347.19-25.293c0 17.854-14.52 32.38-32.369 32.38h-215.21l12.515-7.226c10.502-6.066 14.696-18.989 9.761-30.052l-4.443-9.987c-1.288-2.886-.906-6.217.996-8.691 6.886-8.954 12.558-18.795 16.857-29.24 1.197-2.9 3.893-4.906 7.037-5.233l10.902-1.14c12.057-1.265 21.147-11.363 21.147-23.489v-38.12c0-12.12-9.091-22.214-21.149-23.479l-10.882-1.139c-3.145-.332-5.841-2.338-7.037-5.236-2.128-5.149-4.643-10.248-7.473-15.149-2.802-4.865-5.966-9.599-9.397-14.062-1.909-2.488-2.296-5.827-1.011-8.713l4.45-9.99c4.935-11.076.739-24.002-9.761-30.067l-33.011-19.061c-10.499-6.059-23.788-3.23-30.905 6.577l-6.442 8.864c-1.86 2.562-4.95 3.898-8.047 3.481-11.214-1.499-22.571-1.505-33.767-.02-3.088.416-6.159-.921-8.018-3.483l-6.423-8.843c-7.072-9.725-20.204-12.574-30.656-6.704v-169.415c0-17.854 14.521-32.38 32.37-32.38h159.829c31.325 0 56.81 25.485 56.81 56.81v39.14c0 26.125 21.255 47.38 47.379 47.38h22.359c4.143 0 7.5-3.358 7.5-7.5s-3.357-7.5-7.5-7.5h-22.359c-17.854 0-32.38-14.525-32.38-32.38v-39.14c0-20.267-8.437-38.598-21.986-51.667 15.938 5.136 30.546 14.019 42.732 26.2l76.241 76.251c12.165 12.16 21.04 26.739 26.178 42.658-8.84-9.167-20.16-16.044-33.086-19.489-4.003-1.068-8.111 1.312-9.179 5.315-1.066 4.002 1.312 8.112 5.315 9.179 24.794 6.61 42.111 29.178 42.111 54.883v249.477z"/><path d="m432.611 180.768h-272.686c-4.143 0-7.5 3.358-7.5 7.5s3.357 7.5 7.5 7.5h272.686c4.143 0 7.5-3.358 7.5-7.5s-3.358-7.5-7.5-7.5z"/><path d="m159.925 119.845h100.17c4.143 0 7.5-3.358 7.5-7.5s-3.357-7.5-7.5-7.5h-100.17c-4.143 0-7.5 3.358-7.5 7.5s3.357 7.5 7.5 7.5z"/><path d="m248.093 362.877c0-47.419-38.579-85.998-85.999-85.998-47.419 0-85.998 38.579-85.998 85.998 0 47.42 38.579 85.999 85.998 85.999 47.42 0 85.999-38.579 85.999-85.999zm-156.998 0c0-39.149 31.849-70.998 70.998-70.998s70.999 31.85 70.999 70.998c0 39.149-31.85 70.999-70.999 70.999s-70.998-31.85-70.998-70.999z"/><path d="m200.924 362.877c0-21.411-17.42-38.83-38.831-38.83s-38.83 17.419-38.83 38.83 17.419 38.83 38.83 38.83 38.831-17.419 38.831-38.83zm-62.66 0c0-13.14 10.69-23.83 23.83-23.83 13.141 0 23.831 10.69 23.831 23.83s-10.69 23.83-23.831 23.83c-13.14.001-23.83-10.69-23.83-23.83z"/></g></g></svg>